<svg width="74" height="80" viewBox="0 0 74 80" fill="none" xmlns="http://www.w3.org/2000/svg">
<path d="M5.00977 41.5656V63.4834C5.00977 64.3034 5.67701 64.9706 6.49705 64.9706H18.3953C19.2153 64.9706 19.8826 64.3034 19.8826 63.4834V41.5656C19.8826 40.7455 19.2153 40.0783 18.3953 40.0783H6.49705C5.67701 40.0783 5.00977 40.7455 5.00977 41.5656ZM7.3581 42.4266H17.5342V62.6223H7.3581V42.4266Z" fill="#F79E1B"/>
<path d="M23.7191 51.1937C24.3675 51.1937 24.8933 50.668 24.8933 50.0196V48.7671C24.8933 48.1187 24.3675 47.593 23.7191 47.593C23.0706 47.593 22.5449 48.1187 22.5449 48.7671V50.0196C22.5449 50.668 23.0706 51.1937 23.7191 51.1937Z" fill="#F79E1B"/>
<path d="M23.7191 57.456C24.3675 57.456 24.8933 56.9303 24.8933 56.2818V55.0294C24.8933 54.3809 24.3675 53.8552 23.7191 53.8552C23.0706 53.8552 22.5449 54.3809 22.5449 55.0294V56.2818C22.5449 56.9303 23.0706 57.456 23.7191 57.456Z" fill="#F79E1B"/>
<path d="M14.9515 46.3405H9.94175C9.29329 46.3405 8.76758 46.8662 8.76758 47.5147C8.76758 48.1631 9.29329 48.6889 9.94175 48.6889H14.9515C15.6 48.6889 16.1257 48.1631 16.1257 47.5147C16.1257 46.8662 15.6 46.3405 14.9515 46.3405Z" fill="#F79E1B"/>
<path d="M13.6986 50.0978H11.1937C10.5452 50.0978 10.0195 50.6236 10.0195 51.272C10.0195 51.9205 10.5452 52.4462 11.1937 52.4462H13.6986C14.347 52.4462 14.8728 51.9205 14.8728 51.272C14.8728 50.6236 14.347 50.0978 13.6986 50.0978Z" fill="#F79E1B"/>
<path d="M73.7378 57.5342C73.7378 54.547 72.7377 51.1173 71.8987 48.7662C70.8878 45.9333 69.5034 42.9609 68.1002 40.611C67.4427 39.51 66.2322 38.8258 64.9412 38.8258H62.6372C61.3486 38.8258 60.1392 39.5079 59.4812 40.606C58.0773 42.9486 56.6951 45.9114 55.6889 48.7346C54.8524 51.0818 53.8552 54.514 53.8552 57.5342C53.8552 62.6184 57.6924 66.8208 62.6223 67.4038V69.4325C62.6223 73.9646 58.9353 77.6517 54.4031 77.6517C49.871 77.6517 46.184 73.9646 46.184 69.4325V42.4266H53.7769C55.8056 42.4266 57.456 40.7762 57.456 38.7476V13.6986C57.456 11.67 55.8056 10.0196 53.7769 10.0196H46.1221C45.5333 4.39718 40.7659 0 34.9902 0H24.9706C18.7984 0 13.7769 5.02153 13.7769 11.1937V35.0685H4.93151C2.21229 35.0685 0 37.2808 0 40V65.0489C0 67.7681 2.21229 69.9804 4.93151 69.9804H24.9706C27.6899 69.9804 29.9022 67.7681 29.9022 65.0489V40C29.9022 37.2808 27.6899 35.0685 24.9706 35.0685H16.1252V11.1937C16.1252 6.3164 20.0933 2.34834 24.9706 2.34834H34.9902C39.4693 2.34834 43.1789 5.69566 43.7553 10.0196H36.2427C34.214 10.0196 32.5636 11.67 32.5636 13.6986V38.7476C32.5636 40.7762 34.214 42.4266 36.2427 42.4266H43.8356V69.4325C43.8356 75.2595 48.5761 80 54.4031 80C60.2301 80 64.9706 75.2595 64.9706 69.4325V67.4038C69.9006 66.8208 73.7378 62.6184 73.7378 57.5342ZM27.5538 40V65.0489C27.5538 66.4733 26.395 67.6321 24.9706 67.6321H4.93151C3.50716 67.6321 2.34834 66.4733 2.34834 65.0489V40C2.34834 38.5757 3.50716 37.4168 4.93151 37.4168H24.9706C26.395 37.4168 27.5538 38.5757 27.5538 40ZM34.9119 38.7476V13.6986C34.9119 12.9649 35.5089 12.3679 36.2427 12.3679H43.8356V13.7769H42.5049C41.8564 13.7769 41.3307 14.3026 41.3307 14.9511C41.3307 15.5995 41.8564 16.1252 42.5049 16.1252H47.5147C48.1631 16.1252 48.6888 15.5995 48.6888 14.9511C48.6888 14.3026 48.1631 13.7769 47.5147 13.7769H46.184V12.3679H53.7769C54.5107 12.3679 55.1076 12.9649 55.1076 13.6986V38.7476C55.1076 39.4813 54.5107 40.0783 53.7769 40.0783H36.2427C35.5089 40.0783 34.9119 39.4813 34.9119 38.7476ZM63.7965 65.1272C59.6097 65.1272 56.2035 61.721 56.2035 57.5342C56.2035 53.0107 58.8658 46.2015 61.4956 41.8131C61.7353 41.4129 62.162 41.1742 62.6372 41.1742H64.9412C65.4171 41.1742 65.8444 41.4137 66.0841 41.8151C69.5671 47.6481 71.3894 54.1381 71.3894 57.5342C71.3894 61.721 67.9832 65.1272 63.7965 65.1272Z" fill="#F79E1B"/>
<path d="M66.1269 47.7821C66.0151 47.5234 65.9359 47.3342 65.87 47.1765C65.6956 46.7591 65.5994 46.5292 65.2663 45.8848C64.9684 45.3086 64.26 45.0834 63.684 45.381C63.108 45.6787 62.8824 46.3872 63.1802 46.9633C63.4695 47.523 63.5428 47.6982 63.7032 48.0822C63.772 48.2467 63.8546 48.4443 63.9714 48.7144C64.1632 49.1577 64.5954 49.4228 65.0498 49.4228C65.2052 49.4228 65.3634 49.3916 65.5152 49.326C66.1104 49.0685 66.3843 48.3773 66.1269 47.7821Z" fill="#F79E1B"/>
<path d="M66.2929 51.4063C65.6725 51.5947 65.3221 52.2505 65.5106 52.8709C66.0789 54.7424 66.3792 56.3549 66.3792 57.5342C66.3792 58.266 66.0651 58.9672 65.5175 59.458C65.0345 59.8909 64.994 60.6331 65.4267 61.1161C65.6586 61.3749 65.9793 61.5067 66.3015 61.5067C66.5805 61.5067 66.8606 61.4079 67.0848 61.2069C68.1287 60.2712 68.7275 58.9326 68.7275 57.5342C68.7275 56.1068 68.4013 54.3083 67.7577 52.1887C67.5692 51.5681 66.9134 51.2175 66.2929 51.4063Z" fill="#F79E1B"/>
</svg>
