<svg width="80" height="80" viewBox="0 0 80 80" fill="none" xmlns="http://www.w3.org/2000/svg">
<path d="M78.5703 17.8204H74.8761L66.7234 8.22965C66.4562 7.91203 66.092 7.73723 65.7134 7.73723H41.4279C40.6393 7.73723 39.9993 8.49011 39.9993 9.41779C39.9993 12.7083 41.1565 15.6829 43.0135 17.8204H12.8567C9.70537 17.8204 7.14258 20.8352 7.14258 24.5424C7.14258 28.2497 9.70537 31.2645 12.8567 31.2645H23.6509C23.1595 32.256 22.8566 33.3937 22.8566 34.6256C22.8566 36.6422 23.6309 38.4338 24.8308 39.6673C23.6309 40.9008 22.8566 42.6922 22.8566 44.709C22.8566 46.7257 23.6309 48.5171 24.8308 49.7506C23.6309 50.9842 22.8566 52.7756 22.8566 54.7923C22.8566 58.4995 25.4194 61.5144 28.5708 61.5144H39.9993H42.8565H78.5703C79.3589 61.5144 79.9989 60.7598 79.9989 59.8338V19.501C79.9989 18.5733 79.3589 17.8204 78.5703 17.8204ZM42.8565 58.1531H39.9993H28.5708C26.995 58.1531 25.7136 56.6457 25.7136 54.792C25.7136 52.9382 26.995 51.4308 28.5708 51.4308H42.8565C44.4322 51.4308 45.7136 52.9382 45.7136 54.792C45.7135 56.6457 44.4321 58.1531 42.8565 58.1531ZM42.8565 48.0699H28.5708C26.995 48.0699 25.7136 46.5625 25.7136 44.7088C25.7136 42.8551 26.995 41.3477 28.5708 41.3477H42.8565C44.4322 41.3477 45.7136 42.8551 45.7136 44.7088C45.7136 46.5625 44.4321 48.0699 42.8565 48.0699ZM42.8565 37.9867H28.5708C26.995 37.9867 25.7136 36.4793 25.7136 34.6256C25.7136 32.7719 26.995 31.2645 28.5708 31.2645H35.7136H42.8563C44.4321 31.2645 45.7135 32.7719 45.7135 34.6256C45.7135 36.4793 44.4321 37.9867 42.8565 37.9867ZM77.1417 58.1531H47.7764C48.2678 57.16 48.5706 56.0205 48.5706 54.792C48.5706 52.7754 47.7964 50.9838 46.5964 49.7503C47.7964 48.5151 48.5706 46.7253 48.5706 44.7086C48.5706 42.6919 47.7964 40.9005 46.5964 39.6669C47.7964 38.4334 48.5706 36.642 48.5706 34.6252C48.5706 30.918 46.0078 27.9032 42.8565 27.9032H35.7137H28.571H12.8567C11.281 27.9036 9.99958 26.3962 9.99958 24.5424C9.99958 22.6887 11.281 21.1813 12.8567 21.1813H49.9992H62.8563V17.8202H49.9992C46.5492 17.8202 43.6635 14.928 43.0007 11.0982H65.1219L73.2746 20.6889C73.5418 21.0049 73.906 21.1813 74.2846 21.1813H77.1417V58.1531Z" fill="#FF9A9A"/>
<path d="M11.1385 35.2912C10.5985 34.451 9.39991 34.451 8.85991 35.2912C8.49851 35.8542 0 49.1809 0 59.8337C0 72.994 6.26572 74.9585 9.9999 74.9585C13.7341 74.9585 19.9998 72.994 19.9998 59.8337C19.9998 49.1825 11.5013 35.8542 11.1385 35.2912ZM9.9999 71.5974C8.23273 71.5974 2.85716 71.5974 2.85716 59.8337C2.85716 52.4931 7.72992 43.1678 9.9999 39.222C12.2699 43.1696 17.1426 52.4947 17.1426 59.8337C17.1426 71.5974 11.7671 71.5974 9.9999 71.5974Z" fill="#FF9A9A"/>
<path d="M46.3559 75.881C45.4645 76.0961 44.5587 76.2659 43.6602 76.3885L43.9873 79.7278C44.9687 79.5951 45.9587 79.4085 46.9315 79.1732L46.3559 75.881Z" fill="#FF9A9A"/>
<path d="M22.7972 70.6143L21.2344 73.4275C22.0658 74.0677 22.9272 74.6695 23.7958 75.2189L25.1472 72.2578C24.3514 71.7554 23.5614 71.2025 22.7972 70.6143Z" fill="#FF9A9A"/>
<path d="M40.9323 76.6205C40.0123 76.649 39.0981 76.6372 38.1937 76.5768L38.0352 79.9327C38.6851 79.9765 39.3409 80 40.0023 80C40.3409 80 40.6781 79.9915 41.0123 79.9798L40.9323 76.6205Z" fill="#FF9A9A"/>
<path d="M51.5766 74.0477C50.7324 74.4427 49.8652 74.7956 48.998 75.098L49.8138 78.3196C50.7596 77.9886 51.7066 77.602 52.6296 77.1717L51.5766 74.0477Z" fill="#FF9A9A"/>
<path d="M60.8382 67.3441C60.1582 68.0515 59.4454 68.7338 58.7168 69.3707L60.4196 72.0679C61.2138 71.3739 61.9924 70.6311 62.7324 69.8597L60.8382 67.3441Z" fill="#FF9A9A"/>
<path d="M32.7915 75.661L32.1387 78.9329C33.1001 79.1986 34.0858 79.4169 35.0686 79.5833L35.4758 76.2574C34.5758 76.1045 33.6729 75.9045 32.7915 75.661Z" fill="#FF9A9A"/>
<path d="M64.5955 62.6821C64.0298 63.5173 63.4269 64.3323 62.8027 65.1071L64.8741 67.4212C65.5555 66.5776 66.2141 65.687 66.8299 64.7761L64.5955 62.6821Z" fill="#FF9A9A"/>
<path d="M56.4545 71.1722C55.6831 71.7319 54.8803 72.2578 54.0703 72.7351L55.3503 75.7398C56.2361 75.2173 57.1103 74.6442 57.9531 74.0341L56.4545 71.1722Z" fill="#FF9A9A"/>
<path d="M27.611 73.6544L26.4824 76.7414C27.3896 77.2002 28.3282 77.6187 29.2724 77.9834L30.1652 74.7921C29.2996 74.456 28.441 74.0729 27.611 73.6544Z" fill="#FF9A9A"/>
<path d="M46.2326 0L45.7168 3.30395C46.6082 3.49714 47.504 3.73756 48.3782 4.02154L49.1382 0.781552C48.184 0.472203 47.2054 0.210093 46.2326 0Z" fill="#FF9A9A"/>
<path d="M25.8383 2.92589C24.9411 3.40324 24.0469 3.93757 23.1797 4.51234L24.5825 7.43985C25.3767 6.91214 26.1953 6.42321 27.0167 5.98611L25.8383 2.92589Z" fill="#FF9A9A"/>
<path d="M16.0492 10.8059C15.342 11.616 14.6564 12.4764 14.0078 13.3619L16.1736 15.555C16.7678 14.7433 17.3964 13.9551 18.045 13.2123L16.0492 10.8059Z" fill="#FF9A9A"/>
<path d="M20.6504 6.36586C19.8332 7.02463 19.0304 7.73211 18.2676 8.46991L20.0804 11.068C20.7804 10.3925 21.5161 9.7437 22.2661 9.14045L20.6504 6.36586Z" fill="#FF9A9A"/>
<path d="M31.4501 0.598297C30.4887 0.889082 29.5301 1.23188 28.6016 1.61678L29.5501 4.78802C30.4015 4.43511 31.2801 4.1208 32.1629 3.85373L31.4501 0.598297Z" fill="#FF9A9A"/>
<path d="M51.9732 1.86037L50.9746 5.00974C51.8246 5.38287 52.6718 5.80471 53.4904 6.26349L54.7175 3.22845C53.8232 2.73088 52.9004 2.27044 51.9732 1.86037Z" fill="#FF9A9A"/>
</svg>
