<svg width="80" height="80" viewBox="0 0 80 80" fill="none" xmlns="http://www.w3.org/2000/svg">
<path d="M22.5 41.25H10C9.66848 41.25 9.35054 41.1183 9.11612 40.8839C8.8817 40.6495 8.75 40.3315 8.75 40C8.75 39.6685 8.8817 39.3505 9.11612 39.1161C9.35054 38.8817 9.66848 38.75 10 38.75H21.8311L26.46 31.8066C26.5741 31.6354 26.7288 31.495 26.9102 31.3979C27.0916 31.3008 27.2942 31.25 27.5 31.25C27.7058 31.25 27.9084 31.3008 28.0898 31.3979C28.2712 31.495 28.4259 31.6354 28.54 31.8066L37.5 45.2466L41.46 39.3066C41.5741 39.1354 41.7288 38.995 41.9102 38.8979C42.0916 38.8008 42.2942 38.75 42.5 38.75H50C50.3315 38.75 50.6495 38.8817 50.8839 39.1161C51.1183 39.3505 51.25 39.6685 51.25 40C51.25 40.3315 51.1183 40.6495 50.8839 40.8839C50.6495 41.1183 50.3315 41.25 50 41.25H43.1689L38.54 48.1934C38.4259 48.3646 38.2712 48.505 38.0898 48.6021C37.9084 48.6992 37.7058 48.75 37.5 48.75C37.2942 48.75 37.0916 48.6992 36.9102 48.6021C36.7288 48.505 36.5741 48.3646 36.46 48.1934L27.5 34.7534L23.54 40.6934C23.4259 40.8646 23.2712 41.005 23.0898 41.1021C22.9084 41.1992 22.7058 41.25 22.5 41.25ZM55 11.25C51.9802 11.2448 49.0108 12.023 46.3817 13.5085C43.7526 14.994 41.5537 17.1361 40 19.7255C38.0269 16.4482 35.0344 13.9076 31.4805 12.4922C27.9265 11.0768 24.0068 10.8646 20.3208 11.8881C16.6348 12.9116 13.3857 15.1145 11.0703 18.1596C8.75494 21.2048 7.50089 24.9246 7.5 28.75C7.5 29.1866 7.51267 29.6304 7.53769 30.0691C7.54704 30.233 7.58858 30.3935 7.65993 30.5413C7.73129 30.6891 7.83106 30.8215 7.95356 30.9307C8.07606 31.04 8.21888 31.1241 8.37388 31.1782C8.52887 31.2323 8.693 31.2553 8.85689 31.2459C9.02078 31.2366 9.18123 31.1951 9.32907 31.1237C9.4769 31.0524 9.60924 30.9526 9.71852 30.8301C9.8278 30.7076 9.91188 30.5648 9.96596 30.4098C10.02 30.2548 10.0431 30.0906 10.0337 29.9268C10.0113 29.5352 10 29.1392 10 28.75C10.0006 25.283 11.202 21.9233 13.3998 19.242C15.5976 16.5607 18.6563 14.7233 22.0557 14.0423C25.4551 13.3613 28.9855 13.8786 32.0466 15.5064C35.1077 17.1342 37.5105 19.7719 38.8466 22.971C38.9417 23.1985 39.1019 23.3928 39.3071 23.5295C39.5124 23.6661 39.7534 23.739 40 23.739C40.2465 23.739 40.4876 23.6661 40.6928 23.5295C40.898 23.3928 41.0582 23.1985 41.1533 22.971C42.4894 19.7718 44.8922 17.1341 47.9533 15.5064C51.0144 13.8786 54.5448 13.3613 57.9442 14.0423C61.3437 14.7233 64.4023 16.5607 66.6001 19.242C68.798 21.9233 69.9994 25.283 70 28.75C70 47.4078 44.317 63.4837 39.9994 66.053C37.3996 64.5099 27.0596 58.087 19.2715 49.1777C19.0534 48.9281 18.745 48.7754 18.4142 48.7532C18.0834 48.731 17.7574 48.8411 17.5078 49.0593C17.2582 49.2775 17.1055 49.5859 17.0833 49.9166C17.0611 50.2474 17.1712 50.5735 17.3894 50.8231C26.6122 61.3736 38.8719 68.3009 39.3892 68.5907C39.5758 68.6951 39.7861 68.75 40 68.75C40.2139 68.75 40.4242 68.6951 40.6108 68.5907C46.2688 65.276 51.579 61.4006 56.4612 57.0228C67.1037 47.4446 72.5 37.9321 72.5 28.75C72.4947 24.1103 70.6493 19.6622 67.3686 16.3814C64.0878 13.1007 59.6397 11.2553 55 11.25Z" fill="#35C5CF"/>
</svg>
