<svg width="80" height="80" viewBox="0 0 80 80" fill="none" xmlns="http://www.w3.org/2000/svg">
<path d="M64.9999 54.8833C64.8166 45.25 59.1666 36.75 53.1666 27.75C47.6999 19.5333 42.0499 11.0333 40.6499 1.43328C40.5166 0.616719 39.7999 0 38.9666 0C38.1166 0.0167188 37.4166 0.65 37.3333 1.48328C36.3 11.1333 30.9666 19.8333 25.8166 28.2333C20.1666 37.4666 14.8333 46.1666 14.9999 55.7833C15.2499 69.2333 26.4166 80 39.9999 80C40.1499 80 40.3166 80 40.4666 80C47.0833 79.9 53.3833 77.2 57.9999 72.4667C62.6166 67.7833 65.1332 61.45 64.9999 54.8833ZM55.5999 70.1333C51.5999 74.2333 46.1332 76.5833 40.3999 76.6666C28.4166 76.9166 18.5666 67.4833 18.3332 55.7333C18.1665 47.0833 23.2665 38.7833 28.6499 30C32.7166 23.3833 36.8832 16.5833 39.1332 9.16672C41.6665 16.5167 46.0832 23.15 50.3832 29.6167C56.0999 38.2 61.4999 46.3 61.6665 54.95C61.7832 60.6167 59.5999 66.0833 55.5999 70.1333Z" fill="#B393FF"/>
<path d="M57.0997 58.3833C56.2164 58.15 55.2997 58.6833 55.0664 59.5666C54.4164 62.0498 53.1997 64.3498 51.5331 66.2998C50.7831 67.1831 49.9331 67.9666 49.0164 68.6666C48.2831 69.2166 48.1331 70.2666 48.6831 70.9998C49.2331 71.7331 50.2831 71.8831 51.0164 71.3331C52.1331 70.4998 53.1497 69.5331 54.0664 68.4831C56.0664 66.1498 57.5164 63.3998 58.2997 60.4164C58.5164 59.5333 57.983 58.6167 57.0997 58.3833Z" fill="#B393FF"/>
<path d="M34.2294 36.15C36.1894 36.15 37.9594 36.61 39.5394 37.53C41.1394 38.45 42.3894 39.74 43.2894 41.4C44.2094 43.04 44.6694 44.9 44.6694 46.98C44.6694 49.06 44.2094 50.93 43.2894 52.59C42.3894 54.23 41.1394 55.52 39.5394 56.46C37.9594 57.38 36.1894 57.84 34.2294 57.84C32.2494 57.84 30.4594 57.38 28.8594 56.46C27.2794 55.52 26.0294 54.23 25.1094 52.59C24.1894 50.93 23.7294 49.06 23.7294 46.98C23.7294 44.9 24.1894 43.04 25.1094 41.4C26.0294 39.74 27.2794 38.45 28.8594 37.53C30.4594 36.61 32.2494 36.15 34.2294 36.15ZM34.2294 39.33C32.8694 39.33 31.6594 39.64 30.5994 40.26C29.5394 40.88 28.7094 41.77 28.1094 42.93C27.5294 44.09 27.2394 45.44 27.2394 46.98C27.2394 48.52 27.5294 49.87 28.1094 51.03C28.7094 52.19 29.5394 53.08 30.5994 53.7C31.6594 54.32 32.8694 54.63 34.2294 54.63C35.5694 54.63 36.7594 54.32 37.7994 53.7C38.8594 53.08 39.6794 52.19 40.2594 51.03C40.8594 49.87 41.1594 48.52 41.1594 46.98C41.1594 45.44 40.8594 44.09 40.2594 42.93C39.6794 41.77 38.8594 40.88 37.7994 40.26C36.7594 39.64 35.5694 39.33 34.2294 39.33Z" fill="#B393FF"/>
<path d="M46.0143 56.598C47.9583 55.266 49.5123 53.964 50.6763 52.692C51.8523 51.408 52.4403 50.22 52.4403 49.128C52.4403 48.48 52.2783 47.964 51.9543 47.58C51.6423 47.196 51.1323 47.004 50.4243 47.004C49.6923 47.004 49.1403 47.244 48.7683 47.724C48.3963 48.192 48.1863 48.864 48.1383 49.74H46.1403C46.2243 48.288 46.6683 47.178 47.4723 46.41C48.2883 45.642 49.3263 45.258 50.5863 45.258C51.8223 45.258 52.7883 45.588 53.4843 46.248C54.1923 46.896 54.5463 47.796 54.5463 48.948C54.5463 49.872 54.2583 50.808 53.6823 51.756C53.1183 52.704 52.3983 53.58 51.5223 54.384C50.6463 55.176 49.7403 55.86 48.8043 56.436H54.8343V58.11H46.0143V56.598Z" fill="#B393FF"/>
</svg>
