<?xml version="1.0" encoding="UTF-8"?>
<!-- Generator: visioncortex VTracer 1.0.0-alpha.4 -->
<svg viewBox="0 0 1059 953" version="1.1" xmlns="http://www.w3.org/2000/svg" width="1059" height="953">
<path d="M527,204c0,0,0,1,0,1c-11,0-55,1-62,4c-6,3-15,4-22,4c0,1-1,1-1,2c-3,0-6,0-9,0c0,1-1,1-1,2c-9,0-60,14-63,19c-9,0-34,12-41,17c-4,3-14,5-19,8c-20,12-42,23-62,36C180,341,117,402,69,465c-10,12-30,31-29,47c-1,0-1,1-2,1c1,18-4,31,4,49c10,24,31,41,46,61c37,52,134,135,193,162c8,4,78,37,78,37c16-1,61,23,88,23c0,1,1,1,1,2c4,0,7,0,11,0c0,1,1,1,1,2c23-1,45,5,69,5c27-1,54-8,80-7c0-1,1-1,1-2c20,1,45-9,63-15c88-31,155-74,226-134c25-21,54-47,72-74c18-26,50-49,51-83c1-39-22-63-46-91c-61-70-122-123-200-173c-19-12-42-22-63-32c-5-2-13-2-17-5c-14-9-52-21-69-21c0-1-1-1-1-2c-9,1-36-5-44-8c-11-5-41-1-55-3ZM686,784c-5,9-50,15-61,19c-18,7-39,8-59,10c-140,14-267-48-373-138c-24-20-50-43-69-69c-17-24-61-55-46-88c16-37,90-111,122-136c27-21,52-43,81-61c107-69,236-99,359-62c44,13,90,30,128,57c50,36,99,66,141,114c18,21,78,77,75,105c-3,25-64,92-85,112c-16,14-34,27-49,41c-23,22-137,97-164,96Z" fill="#136D80"/>
<path d="M527,308c0,0,0,1,0,1c-88-1-156,50-199,126c-9,16-11,37-17,53c-1,3,1,8,0,11c-9,19,1,50,0,70c1,0,1,1,2,1c-2,50,55,117,95,145c10,7,26,11,35,17c6,5,24,11,33,11c0,1,1,1,1,2c3,0,7,0,10,0c0,1,1,1,1,2c3,0,6,0,9,0c0,1,1,1,1,2c12,0,24,2,35,2c39-1,84-15,116-36c94-61,136-204,69-298c-19-26-33-50-62-68c-24-15-57-37-85-36c0-1-1-1-1-2c-12,0-31-1-43-3Zm2,39c0,0,0-1,0-1c13,0,26,3,38,3c0,1,1,1,1,2c8,0,21,6,29,9c48,18,88,61,104,110c3,10,8,20,8,31c1,0,1,1,2,1c0,7,3,25,0,28c6,15-5,45-10,60c-17,46-52,87-98,106c-15,7-33,9-47,15c-11,5-52-2-65-2c-2-3-8-3-12-4c-17-7-30-10-45-20c-41-27-60-57-79-99c-4-9-4-24-8-33c-4-8,0-42,0-52c1,0,1-1,2-1c0-12,6-28,11-39c29-68,94-115,169-114Z" fill="#136D80"/>
<path d="M551,618c25,1,68-41,67-66c1,0,1-1,2-1c0-9,2-15,2-24c0-24-13-52-32-68c-4-4-32-18-32-19c-2,0-3,0-5,0c0-1-1-1-1-2c-8,0-12-2-20-2c-25,0-55,11-72,31c-4,5-18,32-20,33c0,2,0,5,0,7c-1,0-1,1-2,1c0,7-2,12-2,18c-1,9,2,15,2,24c1,0,1,1,2,1c-1,26,41,68,67,67c0,1,1,1,1,2c8,0,13,2,21,2c7,0,13-2,21-2c0-1,1-1,1-2Z" fill="#136D80"/>
</svg>
