<svg width="24" height="24" viewBox="0 0 24 24" fill="none" xmlns="http://www.w3.org/2000/svg">
<path d="M10.9998 2C12.9425 1.9997 14.8189 2.70631 16.2789 3.98794C17.7388 5.26957 18.6825 7.03865 18.9338 8.965L21.1838 12.504C21.3318 12.737 21.3018 13.084 20.9588 13.232L18.9998 14.07V17C18.9998 17.5304 18.7891 18.0391 18.414 18.4142C18.039 18.7893 17.5303 19 16.9998 19H15.0008L14.9998 22H5.99983V18.306C5.99983 17.126 5.56383 16.009 4.75483 15.001C3.81253 13.8245 3.22181 12.4056 3.05072 10.908C2.87964 9.41036 3.13515 7.89486 3.78782 6.53611C4.44049 5.17737 5.46377 4.03066 6.73974 3.22811C8.01571 2.42557 9.49246 1.99985 10.9998 2ZM10.9998 4C9.86941 3.99995 8.76197 4.31925 7.80509 4.9211C6.84821 5.52295 6.08081 6.38287 5.59131 7.40181C5.1018 8.42075 4.9101 9.55724 5.03828 10.6804C5.16646 11.8035 5.60932 12.8676 6.31583 13.75C7.40983 15.114 7.99983 16.667 7.99983 18.306V20H12.9998L13.0018 17H16.9998V12.752L18.5498 12.088L17.0068 9.663L16.9498 9.221C16.7607 7.77682 16.0528 6.45074 14.958 5.49008C13.8632 4.52943 12.4563 3.99981 10.9998 4ZM10.4698 7.763L10.9998 8.293L11.5298 7.763C11.8598 7.44416 12.3018 7.26768 12.7607 7.27157C13.2195 7.27546 13.6585 7.45942 13.983 7.78382C14.3075 8.10822 14.4917 8.5471 14.4958 9.00595C14.4998 9.46479 14.3235 9.90688 14.0048 10.237L10.9998 13.243L7.99483 10.237C7.82772 10.0755 7.69444 9.8824 7.60277 9.66888C7.5111 9.45535 7.46287 9.22571 7.4609 8.99334C7.45892 8.76098 7.50325 8.53055 7.59128 8.3155C7.67932 8.10045 7.8093 7.90509 7.97365 7.74081C8.13799 7.57653 8.33341 7.44662 8.54849 7.35868C8.76358 7.27073 8.99403 7.2265 9.22639 7.22856C9.45875 7.23063 9.68838 7.27895 9.90187 7.37071C10.1154 7.46247 10.3084 7.59582 10.4698 7.763Z" fill="#35C5CF"/>
</svg>
